# xmcd
#
# Track frame offsets:
#	150
#	20632
#	40730
#	60305
#	74770
#	90292
#	108765
#	128432
#	140795
#	161652
#	176802
#	194182
#	208515
#	224110
#	239280
#	258055
#	270155
#	289042
#	308640
#	325762
#
# Disc length: 4524 seconds
#
# Revision: 0
# Processed by: cddbd v1.4PL0 Copyright (c) Steve Scherf et al.
# Submitted via: EasyCDDAExtractor 4.5.0.2
#
DISCID=2411aa14
DTITLE=Various Artist - Don't Step Out of Line (All-Star Country Line Dancing)
DYEAR=1900
DGENRE=Country
TTITLE0=Whose On The Other Line?
TTITLE1=The Boys And Me
TTITLE2=Don't Step Out Of Line
TTITLE3=Girls With Guitars
TTITLE4=That's What I Get For Losing You
TTITLE5=Clear Road
TTITLE6=Hard Times
TTITLE7=Talk Dirty
TTITLE8=Any Man Of Mine
TTITLE9=Duelling Banjos
TTITLE10=Line King
TTITLE11=Meet Me On The Corner
TTITLE12=Angel Of The Night
TTITLE13=Nobody Wins
TTITLE14=Back On The Streets
TTITLE15=XXXXs and OOOs
TTITLE16=Soft Touch
TTITLE17=Wrong Train, Wrong Line
TTITLE18=Time Won't Let Me Slow Down
TTITLE19=Cowboy Reggae
EXTD=
EXTT0=
EXTT1=
EXTT2=
EXTT3=
EXTT4=
EXTT5=
EXTT6=
EXTT7=
EXTT8=
EXTT9=
EXTT10=
EXTT11=
EXTT12=
EXTT13=
EXTT14=
EXTT15=
EXTT16=
EXTT17=
EXTT18=
EXTT19=
PLAYORDER=
